# xmcd
#
# Track frame offsets:
#	150
#	20783
#	39087
#	58821
#	81618
#	110363
#	127488
#	142762
#	163222
#	191347
#
# Disc length: 2912 seconds
#
# Revision: 1
# Processed by: cddbd v1.5.1PL2 Copyright (c) Steve Scherf et al.
# Submitted via: audiograbber 1.80.04
#
DISCID=8e0b5e0a
DTITLE=Lewi Longmire - If I Live To Be 100
DYEAR=2005
DGENRE=Crossover
TTITLE0=When Your Time Comes A-Callin
TTITLE1=Allegheny County
TTITLE2=Girl On My Mind
TTITLE3=Alberta
TTITLE4=Turquoise For The Tourists
TTITLE5=Mountains and Rain
TTITLE6=If I Live To Be 100
TTITLE7=Mudslide Blues
TTITLE8=Losing The Battle
TTITLE9=Find Me A Woman
EXTD=Produced by Adam East and Lewi Longmire\nRecorded by Adam East at Blue Her
EXTD=on Sound in Portland Orygun.\nCopyright Number One Records\nwww.numberoner
EXTD=ecords.com\nwww.lewilongmire.com
EXTT0=
EXTT1=
EXTT2=
EXTT3=
EXTT4=
EXTT5=
EXTT6=
EXTT7=
EXTT8=
EXTT9=
PLAYORDER=
